<?xml version="1.0" encoding="UTF-8"?>
<svg version="1.1" xmlns="http://www.w3.org/2000/svg" width="512" height="512">
<path d="M0 0 C102.96 0 205.92 0 312 0 C312 10.23 312 20.46 312 31 C315.3 31 318.6 31 322 31 C346.82686776 33.59008035 369.59421993 42.10593637 386.12890625 61.6015625 C397.28047088 75.89605245 403.9657778 92.85410141 405 111 C405.07927734 112.22783203 405.07927734 112.22783203 405.16015625 113.48046875 C406.14434905 143.81928166 394.7572759 174.52623094 374.30322266 196.85205078 C362.53076106 209.39097343 349.88123314 219.31359212 335 228 C333.82264598 228.71439783 332.64556969 229.42925356 331.46875 230.14453125 C311.30910616 242.17190787 287.04282811 252.37860114 263.84301758 256.30834961 C254.21939011 258.00112268 250.00021583 262.53105695 244.46337891 270.11767578 C235.00907865 282.27861255 222.67199036 291.66972984 209.875 300 C195.04291513 309.81050319 185.51770781 321.86380968 180.75 339.125 C178.85465076 348.91763774 178.87486926 358.6868016 178.9375 368.625 C178.94252803 370.02473797 178.94708862 371.4244777 178.95117188 372.82421875 C178.96286833 376.21619169 178.97925914 379.60807233 179 383 C179.64178192 382.99555878 180.28356384 382.99111755 180.9447937 382.98654175 C187.6614152 382.9420844 194.37799447 382.91204101 201.09472656 382.89013672 C203.5970225 382.88011719 206.09930684 382.86649787 208.6015625 382.84912109 C212.21096673 382.82469439 215.82021531 382.81347606 219.4296875 382.8046875 C220.53738495 382.79436493 221.6450824 382.78404236 222.78634644 382.77340698 C234.35772945 382.77175847 245.00728614 384.10127095 253.75 392.25 C259.25205328 398.07865918 262.13824803 404.76513743 262.09765625 412.76171875 C262.09443359 413.87998047 262.09121094 414.99824219 262.08789062 416.15039062 C262.07951172 417.31763672 262.07113281 418.48488281 262.0625 419.6875 C262.05798828 420.86634766 262.05347656 422.04519531 262.04882812 423.25976562 C262.03703273 426.17322789 262.0205727 429.08658863 262 432 C263.15757812 431.96519531 264.31515625 431.93039062 265.5078125 431.89453125 C267.0468604 431.86637793 268.58592411 431.83907944 270.125 431.8125 C271.26582031 431.77479492 271.26582031 431.77479492 272.4296875 431.73632812 C277.39109141 431.67217204 280.69807601 432.25832605 285 435 C303.91522139 454.77500418 292 487.69420105 292 512 C202.24 512 112.48 512 20 512 C20 442.59318182 20 442.59318182 24.71875 436.94140625 C25.3065625 436.48636719 25.894375 436.03132813 26.5 435.5625 C27.0878125 435.08941406 27.675625 434.61632812 28.28125 434.12890625 C31.16790509 432.2328987 33.65400566 431.87709779 37.01171875 431.90234375 C38.14770508 431.90717773 38.14770508 431.90717773 39.30664062 431.91210938 C40.09232422 431.92048828 40.87800781 431.92886719 41.6875 431.9375 C42.48478516 431.94201172 43.28207031 431.94652344 44.10351562 431.95117188 C46.06904257 431.9629415 48.03453085 431.98087652 50 432 C49.97905273 431.28980713 49.95810547 430.57961426 49.93652344 429.84790039 C49.85265314 426.58624806 49.80111643 423.32482356 49.75 420.0625 C49.69972656 418.38704102 49.69972656 418.38704102 49.6484375 416.67773438 C49.52819188 406.42679506 51.99203777 399.29919583 59.0234375 391.7890625 C68.58643297 383.13322866 80.24136442 382.68979472 92.5703125 382.8046875 C93.73255341 382.8075174 94.89479431 382.81034729 96.09225464 382.81326294 C99.76994537 382.82437341 103.44738405 382.849461 107.125 382.875 C109.63280896 382.8850416 112.14062177 382.89416538 114.6484375 382.90234375 C120.76570963 382.92428278 126.8828368 382.95766835 133 383 C134.10782707 343.70450948 134.10782707 343.70450948 115.4375 310.12890625 C110.84057499 305.62196135 105.70201335 302.23264131 100.3125 298.75 C91.98912387 293.22086564 84.45006396 287.50458177 77.41162109 280.41748047 C75.96692025 278.96678294 74.49682008 277.54635065 73.01953125 276.12890625 C68.79364648 272.02864063 65.08000058 268.21020292 62.0625 263.125 C57.61761876 257.20198609 50.56145533 256.74962069 43.71875 255.29296875 C14.03780023 248.9041751 -17.31280013 235.09356077 -41 216 C-41.85722656 215.34257812 -42.71445312 214.68515625 -43.59765625 214.0078125 C-55.94347381 204.30879612 -66.82319248 193.45370075 -75 180 C-75.68578125 178.87464844 -76.3715625 177.74929687 -77.078125 176.58984375 C-91.86559359 151.1993785 -96.75249756 120.58617004 -90 92 C-83.34658405 69.36097114 -68.47289072 52.23954449 -48 41 C-33.01295541 33.39553727 -16.62914632 31 0 31 C0 20.77 0 10.54 0 0 Z M312 63 C311.96036133 63.80703369 311.92072266 64.61406738 311.87988281 65.44555664 C309.31869045 115.64704941 301.86494447 165.74133151 280.46875 211.67578125 C278.86528569 214.69919295 278.86528569 214.69919295 279 217 C284.6376903 216.41710472 289.22761686 214.34506299 294.3125 212 C295.19188232 211.59700684 296.07126465 211.19401367 296.97729492 210.77880859 C328.84371408 196.01823501 355.38840452 176.95723767 368.375 143.125 C368.94097659 141.42456592 369.4847804 139.71649478 370 138 C370.22429687 137.27683594 370.44859375 136.55367188 370.6796875 135.80859375 C374.67366286 120.07889629 373.04263979 101.67712808 364.85546875 87.66796875 C356.6410912 75.85655851 344.97275981 68.16939372 331 65 C324.69634933 64.05181138 318.35208438 63.50497742 312 63 Z M-43 77 C-44.06154297 77.85851562 -44.06154297 77.85851562 -45.14453125 78.734375 C-54.04774867 86.7013076 -59.11833711 98.53648812 -60.21728516 110.33227539 C-61.48673873 135.5724603 -53.22287101 157.79146843 -36.59375 176.7421875 C-18.82764939 195.25815599 5.85423159 208.85248932 30 217 C30.99 217 31.98 217 33 217 C31.82329742 213.1983455 30.42109865 209.53221826 28.8984375 205.859375 C9.89059732 159.99708224 2.18932043 112.37493705 0 63 C-15.72920348 63 -30.76935387 66.83981229 -43 77 Z " fill="#F8AB2F" transform="translate(100,0)"/>
<path d="M0 0 C27.06 0 54.12 0 82 0 C82.03867187 10.33505859 82.03867187 10.33505859 82.078125 20.87890625 C82.10341973 25.35875635 82.12984804 29.83854709 82.16015625 34.31835938 C82.20770559 41.36157073 82.25202723 48.40464406 82.27099609 55.44799805 C82.44486318 115.71872892 85.88019807 177.82447491 103 236 C103.40387939 237.37671875 103.40387939 237.37671875 103.81591797 238.78125 C110.19548042 260.23266841 117.55611706 281.66810998 131.1875 299.6875 C144.94030999 318.14306013 145.6115365 339.51951428 145.25 361.6875 C145.22987352 363.86521767 145.21163379 366.04295362 145.1953125 368.22070312 C145.15187567 373.48087751 145.08546685 378.74034901 145 384 C144.24436768 384.26772217 143.48873535 384.53544434 142.71020508 384.8112793 C141.71915771 385.16617432 140.72811035 385.52106934 139.70703125 385.88671875 C138.72452393 386.23694092 137.7420166 386.58716309 136.72973633 386.94799805 C129.65941143 389.67280173 124.39573961 394.46124903 120.87060547 401.13964844 C117.99674254 407.85511792 117.35158884 413.86601547 117.25 421.125 C117.22035156 422.176875 117.19070312 423.22875 117.16015625 424.3125 C117.09026789 426.87507309 117.03717599 429.43677962 117 432 C117.82937387 431.99723462 118.65874775 431.99446924 119.51325417 431.99162006 C139.69403318 431.92536615 159.87479345 431.87572228 180.05565834 431.84456348 C189.81497732 431.82909481 199.57422371 431.80800524 209.33349609 431.77368164 C217.83970799 431.74377935 226.3458673 431.724425 234.85213029 431.71773452 C239.35611313 431.71382367 243.85994554 431.70463258 248.36388016 431.68280983 C252.60408277 431.66243158 256.84407314 431.65616891 261.08432007 431.66067696 C262.63954192 431.65985235 264.19477094 431.6538946 265.74995041 431.64238358 C267.87633513 431.62741806 270.00192255 431.63106056 272.12832642 431.63923645 C273.31743937 431.63647107 274.50655231 431.63370569 275.73169899 431.63085651 C280.99298342 432.2251007 284.12186285 434.08194753 287.75 437.875 C302.21090666 457.95959258 292 487.25108729 292 512 C202.24 512 112.48 512 20 512 C20 442.59318182 20 442.59318182 24.71875 436.94140625 C25.3065625 436.48636719 25.894375 436.03132813 26.5 435.5625 C27.0878125 435.08941406 27.675625 434.61632812 28.28125 434.12890625 C31.16790509 432.2328987 33.65400566 431.87709779 37.01171875 431.90234375 C38.14770508 431.90717773 38.14770508 431.90717773 39.30664062 431.91210938 C40.09232422 431.92048828 40.87800781 431.92886719 41.6875 431.9375 C42.48478516 431.94201172 43.28207031 431.94652344 44.10351562 431.95117188 C46.06904257 431.9629415 48.03453085 431.98087652 50 432 C49.97905273 431.28980713 49.95810547 430.57961426 49.93652344 429.84790039 C49.85265314 426.58624806 49.80111643 423.32482356 49.75 420.0625 C49.69972656 418.38704102 49.69972656 418.38704102 49.6484375 416.67773438 C49.52819188 406.42679506 51.99203777 399.29919583 59.0234375 391.7890625 C68.58643297 383.13322866 80.24136442 382.68979472 92.5703125 382.8046875 C93.73255341 382.8075174 94.89479431 382.81034729 96.09225464 382.81326294 C99.76994537 382.82437341 103.44738405 382.849461 107.125 382.875 C109.63280896 382.8850416 112.14062177 382.89416538 114.6484375 382.90234375 C120.76570963 382.92428278 126.8828368 382.95766835 133 383 C134.10782707 343.70450948 134.10782707 343.70450948 115.4375 310.12890625 C110.84057499 305.62196135 105.70201335 302.23264131 100.3125 298.75 C91.98912387 293.22086564 84.45006396 287.50458177 77.41162109 280.41748047 C75.96692025 278.96678294 74.49682008 277.54635065 73.01953125 276.12890625 C68.79364648 272.02864063 65.08000058 268.21020292 62.0625 263.125 C57.61761876 257.20198609 50.56145533 256.74962069 43.71875 255.29296875 C14.03780023 248.9041751 -17.31280013 235.09356077 -41 216 C-41.85722656 215.34257812 -42.71445312 214.68515625 -43.59765625 214.0078125 C-55.94347381 204.30879612 -66.82319248 193.45370075 -75 180 C-75.68578125 178.87464844 -76.3715625 177.74929687 -77.078125 176.58984375 C-91.86559359 151.1993785 -96.75249756 120.58617004 -90 92 C-83.34658405 69.36097114 -68.47289072 52.23954449 -48 41 C-33.01295541 33.39553727 -16.62914632 31 0 31 C0 20.77 0 10.54 0 0 Z M-43 77 C-44.06154297 77.85851562 -44.06154297 77.85851562 -45.14453125 78.734375 C-54.04774867 86.7013076 -59.11833711 98.53648812 -60.21728516 110.33227539 C-61.48673873 135.5724603 -53.22287101 157.79146843 -36.59375 176.7421875 C-18.82764939 195.25815599 5.85423159 208.85248932 30 217 C30.99 217 31.98 217 33 217 C31.82329742 213.1983455 30.42109865 209.53221826 28.8984375 205.859375 C9.89059732 159.99708224 2.18932043 112.37493705 0 63 C-15.72920348 63 -30.76935387 66.83981229 -43 77 Z " fill="#DD8D19" transform="translate(100,0)"/>
<path d="M0 0 C0.85918826 -0.00384115 1.71837653 -0.00768229 2.6036008 -0.01163983 C4.02011386 -0.01034011 4.02011386 -0.01034011 5.46524334 -0.00901413 C6.96956898 -0.01347081 6.96956898 -0.01347081 8.50428504 -0.01801753 C11.88057697 -0.02672168 15.25683352 -0.02821423 18.6331358 -0.02970505 C21.04745847 -0.03433198 23.46178041 -0.03935647 25.87610149 -0.04475021 C32.44636427 -0.05788769 39.01661967 -0.0643583 45.58689237 -0.06876087 C49.68910206 -0.07152319 53.79130939 -0.07576052 57.89351749 -0.08026505 C69.25051539 -0.0924577 80.60751139 -0.10275706 91.96451569 -0.10614014 C92.69143332 -0.1063597 93.41835095 -0.10657927 94.16729639 -0.10680549 C95.26028661 -0.10713291 95.26028661 -0.10713291 96.37535745 -0.10746694 C97.85190857 -0.1079104 99.32845968 -0.10835697 100.8050108 -0.10880661 C101.53743166 -0.10902804 102.26985253 -0.10924947 103.02446797 -0.10947761 C114.89279479 -0.11342578 126.76106023 -0.13088038 138.62936334 -0.15416613 C150.81328344 -0.17787826 162.99717273 -0.19034192 175.18111628 -0.19150805 C182.02239874 -0.19242489 188.86360121 -0.19817925 195.70486164 -0.21632767 C202.1390131 -0.23333592 208.57305319 -0.2349823 215.00722218 -0.22618866 C217.37033017 -0.22541626 219.73344622 -0.22978757 222.09653378 -0.23964691 C225.3196357 -0.25230704 228.5421944 -0.24652161 231.76529217 -0.23606491 C232.70294204 -0.24412132 233.64059191 -0.25217772 234.60665542 -0.26047826 C239.76225954 -0.22129236 243.35655044 0.23439223 247.80574322 3.13142776 C266.7209646 22.90643194 254.80574322 55.82562882 254.80574322 80.13142776 C165.04574322 80.13142776 75.28574322 80.13142776 -17.19425678 80.13142776 C-17.19425678 10.72460958 -17.19425678 10.72460958 -12.47550678 5.07283401 C-11.88769428 4.61779495 -11.29988178 4.16275589 -10.69425678 3.69392776 C-9.81253803 2.98429886 -9.81253803 2.98429886 -8.91300678 2.26033401 C-5.96954389 0.32701407 -3.42174478 0.0057413 0 0 Z " fill="#4F5B5D" transform="translate(137.19425678253174,431.8685722351074)"/>
<path d="M0 0 C25.08279353 -0.56162861 49.30984353 6.84289302 68 24 C83.03449686 38.84280018 91.79932577 58.93362494 93 80 C93.07927734 81.22783203 93.07927734 81.22783203 93.16015625 82.48046875 C94.14434905 112.81928166 82.7572759 143.52623094 62.30322266 165.85205078 C50.53076106 178.39097343 37.88123314 188.31359212 23 197 C21.82264598 197.71439783 20.64556969 198.42925356 19.46875 199.14453125 C1.74116655 209.72092458 -35.12316523 230.5789972 -56.328125 226.55859375 C-56.87984375 226.37425781 -57.4315625 226.18992187 -58 226 C-57.39414062 225.12601563 -56.78828125 224.25203125 -56.1640625 223.3515625 C-50.79825638 215.51031098 -45.91304227 207.53224768 -41.40087891 199.16845703 C-40.63214471 197.74637867 -39.8520902 196.33034781 -39.05957031 194.92138672 C-38.13301351 193.24120193 -37.28945412 191.51578869 -36.4609375 189.78515625 C-33.22045071 186.11774818 -29.8978266 185.01548393 -25.375 183.29541016 C-19.60366441 181.08022594 -14.07362125 178.35383417 -8.5 175.6875 C-6.80037109 174.89182617 -6.80037109 174.89182617 -5.06640625 174.08007812 C22.63204141 160.8336842 44.30976041 140.95178653 55.375 112.125 C55.94097659 110.42456592 56.4847804 108.71649478 57 107 C57.22429687 106.27683594 57.44859375 105.55367188 57.6796875 104.80859375 C61.69053938 89.01243051 60.01147366 70.65662 51.7890625 56.6015625 C43.92729496 45.16938524 32.41705757 38.08935586 19 35 C14.22237024 34.27909987 9.42473904 33.81968161 4.61328125 33.39453125 C1 33 1 33 0 32 C-0.0883967 29.6243148 -0.11530305 27.27791326 -0.09765625 24.90234375 C-0.0962413 24.19348526 -0.09482635 23.48462677 -0.09336853 22.75428772 C-0.08775443 20.48198288 -0.07519963 18.20977525 -0.0625 15.9375 C-0.05748681 14.40039204 -0.05292359 12.86328255 -0.04882812 11.32617188 C-0.03778042 7.55074358 -0.02050641 3.77538829 0 0 Z " fill="#DD8D19" transform="translate(412,31)"/>
<path d="M0 0 C0.98291016 0.00322266 1.96582031 0.00644531 2.97851562 0.00976562 C4.51475586 0.02233398 4.51475586 0.02233398 6.08203125 0.03515625 C7.63567383 0.04192383 7.63567383 0.04192383 9.22070312 0.04882812 C11.77870391 0.06061615 14.33658858 0.0770711 16.89453125 0.09765625 C16.29898438 0.54367187 15.7034375 0.9896875 15.08984375 1.44921875 C8.5294119 6.15981266 8.5294119 6.15981266 4.89453125 13.09765625 C4.56947256 16.30959314 4.56947256 16.30959314 4.57568359 19.81567383 C4.56563797 20.46989319 4.55559235 21.12411255 4.54524231 21.79815674 C4.51451675 23.9461586 4.49740529 26.09403644 4.48046875 28.2421875 C4.4617485 29.73720865 4.44217444 31.23221933 4.42178345 32.72721863 C4.37054662 36.65129411 4.3308759 40.57540381 4.29364014 44.49963379 C4.25354734 48.50830493 4.20247912 52.51683474 4.15234375 56.52539062 C4.05568449 64.38272289 3.972263 72.24011392 3.89453125 80.09765625 C-3.36546875 80.09765625 -10.62546875 80.09765625 -18.10546875 80.09765625 C-18.17343168 71.76086956 -18.22839215 63.42430076 -18.26090527 55.08731079 C-18.27651534 51.21549123 -18.2976675 47.34387217 -18.33178711 43.47216797 C-18.36454809 39.730927 -18.38235675 35.98987806 -18.39010048 32.24850464 C-18.39561413 30.82604961 -18.40638058 29.40360426 -18.42265892 27.98123169 C-18.60596193 11.2902924 -18.60596193 11.2902924 -13.38671875 5.0390625 C-12.79890625 4.58402344 -12.21109375 4.12898438 -11.60546875 3.66015625 C-10.72375 2.95052734 -10.72375 2.95052734 -9.82421875 2.2265625 C-6.57244335 0.09073729 -3.77329365 -0.02181095 0 0 Z " fill="#3B4547" transform="translate(138.10546875,431.90234375)"/>
</svg>
